<svg width="64" height="64" viewBox="0 0 64 64" fill="none" xmlns="http://www.w3.org/2000/svg">
<g clip-path="url(#clip0)">
<path d="M43.3203 32.1445C43.3203 33.1992 43.1797 34.125 42.8984 34.9219C42.6172 35.6953 42.3008 36.3516 41.9492 36.8906C41.5977 37.4297 41.2695 37.8398 40.9648 38.1211C40.6836 38.4023 40.5312 38.5547 40.5078 38.5781L40.1562 38.8594L39.6641 38.7188C38.3516 38.2734 37.1914 37.9453 36.1836 37.7344C35.1992 37.5234 34.2148 37.418 33.2305 37.418C32.5039 37.418 31.7891 37.4883 31.0859 37.6289L31.2969 38.0508L31.4375 38.3672L31.2969 38.6484C30.4297 41.0391 29.9961 43.4883 29.9961 45.9961C29.9961 47.1914 30.0898 48.375 30.2773 49.5469C30.4648 50.7188 30.7812 51.9023 31.2266 53.0977L31.3672 53.4844L31.2266 53.7656C31.2031 53.8125 31.0742 54.0234 30.8398 54.3984C30.6055 54.75 30.2188 55.1484 29.6797 55.5938C29.1406 56.0156 28.4023 56.4023 27.4648 56.7539C26.5508 57.1055 25.4023 57.2812 24.0195 57.2812C22.6367 57.2812 21.4883 57.0938 20.5742 56.7188C19.6836 56.3438 18.9688 55.9336 18.4297 55.4883C17.9141 55.0195 17.5508 54.5977 17.3398 54.2227C17.1289 53.8242 17.0234 53.6016 17.0234 53.5547L16.8828 53.2734L17.0234 52.8867C17.5625 51.5977 17.9609 50.2734 18.2188 48.9141C18.4766 47.5547 18.6055 46.1719 18.6055 44.7656C18.6055 43.7812 18.5469 42.7852 18.4297 41.7773C18.3359 40.7695 18.1602 39.7266 17.9023 38.6484V38.1914C18.1836 37.043 18.4062 35.918 18.5703 34.8164C18.7578 33.6914 18.8516 32.5664 18.8516 31.4414C18.8516 30.1992 18.7461 28.9805 18.5352 27.7852C18.3242 26.5898 18.043 25.4062 17.6914 24.2344L17.6211 23.8828L17.7617 23.6016C18.2773 22.3359 18.6523 21.0703 18.8867 19.8047C19.1445 18.5156 19.2734 17.2383 19.2734 15.9727C19.2734 14.9414 19.1914 13.9219 19.0273 12.9141C18.8867 11.8828 18.6523 10.8398 18.3242 9.78516L18.1836 9.32812L18.4648 8.97656C18.4883 8.95312 18.6289 8.8125 18.8867 8.55469C19.1445 8.27344 19.5312 7.98047 20.0469 7.67578C20.5859 7.34766 21.2539 7.06641 22.0508 6.83203C22.8477 6.57422 23.7969 6.44531 24.8984 6.44531C26.1641 6.44531 27.2422 6.62109 28.1328 6.97266C29.0234 7.32422 29.7383 7.69922 30.2773 8.09766C30.957 8.02734 31.6719 7.92188 32.4219 7.78125C33.1719 7.64062 33.9219 7.44141 34.6719 7.18359L34.9531 7.04297L35.3398 7.11328C36.4648 7.46484 37.4375 7.73438 38.2578 7.92188C39.1016 8.08594 39.8984 8.16797 40.6484 8.16797C41.4688 8.16797 42.3242 8.0625 43.2148 7.85156C44.1055 7.64062 45.1484 7.32422 46.3438 6.90234L46.7656 6.72656L47.1523 6.97266C47.1758 6.99609 47.3281 7.125 47.6094 7.35938C47.8906 7.59375 48.1953 7.95703 48.5234 8.44922C48.8516 8.91797 49.1562 9.52734 49.4375 10.2773C49.7422 11.0039 49.9297 11.8945 50 12.9492V13.582C50 14.5195 49.8828 15.3516 49.6484 16.0781C49.4141 16.8047 49.1445 17.4258 48.8398 17.9414C48.5586 18.4336 48.2891 18.8086 48.0312 19.0664C47.7969 19.3242 47.668 19.4648 47.6445 19.4883L47.293 19.7695L46.7656 19.6289C45.6406 19.3711 44.6797 19.1836 43.8828 19.0664C43.0859 18.9258 42.3477 18.8555 41.668 18.8555C40.8711 18.8555 40.0742 18.9492 39.2773 19.1367C38.5039 19.3008 37.5664 19.5586 36.4648 19.9102L35.9727 19.9805C34.9883 19.793 34.0391 19.6523 33.125 19.5586C32.2344 19.4648 31.332 19.418 30.418 19.418C30.4883 20.0742 30.582 20.7305 30.6992 21.3867C30.8398 22.0195 31.0156 22.6641 31.2266 23.3203V23.8125C31.0859 24.2344 30.9688 24.6562 30.875 25.0781C30.8047 25.4766 30.7344 25.8984 30.6641 26.3438C31.3438 26.5312 31.9766 26.6602 32.5625 26.7305C33.1719 26.8008 33.8047 26.8359 34.4609 26.8359C35.3281 26.8359 36.207 26.7656 37.0977 26.625C37.9883 26.4609 38.9609 26.2148 40.0156 25.8867L40.4375 25.7461L40.7891 26.0273C40.8125 26.0508 40.9531 26.1914 41.2109 26.4492C41.4922 26.6836 41.7852 27.0586 42.0898 27.5742C42.418 28.0664 42.6992 28.6992 42.9336 29.4727C43.1914 30.2227 43.3203 31.1133 43.3203 32.1445ZM29.9258 10.0664C29.7617 9.92578 29.5391 9.75 29.2578 9.53906C28.9766 9.32812 28.625 9.12891 28.2031 8.94141C27.7812 8.75391 27.2891 8.60156 26.7266 8.48438C26.1875 8.34375 25.5781 8.27344 24.8984 8.27344C24.2422 8.27344 23.6562 8.33203 23.1406 8.44922C22.625 8.54297 22.168 8.67187 21.7695 8.83594C21.3945 9 21.0781 9.16406 20.8203 9.32812C20.5625 9.49219 20.3633 9.64453 20.2227 9.78516C20.5039 10.8398 20.7148 11.8711 20.8555 12.8789C20.9961 13.8867 21.0664 14.918 21.0664 15.9727C21.0664 18.1992 20.7031 20.4023 19.9766 22.582C20.5625 22.3945 21.125 22.2773 21.6641 22.2305C22.2031 22.1836 22.707 22.1602 23.1758 22.1602C24.4414 22.1602 25.3906 22.2422 26.0234 22.4062C26.6562 22.5469 27.1016 22.7109 27.3594 22.8984C27.6641 23.1094 27.8047 23.3438 27.7812 23.6016C27.7812 23.8125 27.6992 23.9883 27.5352 24.1289C27.3945 24.2461 27.2305 24.3047 27.043 24.3047C26.9961 24.3047 26.9258 24.2812 26.832 24.2344C26.7617 24.1641 26.6094 24.0938 26.375 24.0234C26.1406 23.9531 25.8125 23.8945 25.3906 23.8477C24.9688 23.7773 24.3945 23.7422 23.668 23.7422C23.082 23.7422 22.4492 23.8008 21.7695 23.918C21.0898 24.0352 20.375 24.2344 19.625 24.5156C19.9531 25.6406 20.1992 26.7656 20.3633 27.8906C20.5508 29.0156 20.6445 30.1758 20.6445 31.3711C20.6445 32.3555 20.5742 33.3633 20.4336 34.3945C20.3164 35.4023 20.1406 36.4102 19.9062 37.418C20.2812 37.3711 20.6328 37.3359 20.9609 37.3125C21.2891 37.2891 21.6406 37.2773 22.0156 37.2773C22.5547 37.2773 23.1758 37.3125 23.8789 37.3828C24.582 37.4297 25.25 37.5117 25.8828 37.6289C26.5156 37.7461 27.043 37.8984 27.4648 38.0859C27.9102 38.25 28.1328 38.4609 28.1328 38.7188C28.1328 38.9766 28.0273 39.1641 27.8164 39.2812C27.6055 39.375 27.3945 39.4219 27.1836 39.4219C26.6445 39.2812 26.0234 39.1641 25.3203 39.0703C24.6406 38.9766 23.9258 38.9297 23.1758 38.9297C22.6367 38.9297 22.0625 38.9648 21.4531 39.0352C20.8672 39.082 20.3047 39.1406 19.7656 39.2109C20 40.1953 20.1523 41.1562 20.2227 42.0938C20.3164 43.0312 20.3633 43.9453 20.3633 44.8359C20.3633 47.6953 19.8594 50.4727 18.8516 53.168C18.9453 53.332 19.0977 53.5547 19.3086 53.8359C19.543 54.0938 19.8594 54.3516 20.2578 54.6094C20.6797 54.8438 21.1953 55.0547 21.8047 55.2422C22.4141 55.4062 23.1523 55.4883 24.0195 55.4883C24.8867 55.4883 25.6367 55.4062 26.2695 55.2422C26.9023 55.0781 27.4297 54.8906 27.8516 54.6797C28.2969 54.4453 28.6367 54.2109 28.8711 53.9766C29.1289 53.7188 29.3164 53.5078 29.4336 53.3438C29.0352 52.1016 28.7305 50.8828 28.5195 49.6875C28.3086 48.4922 28.2031 47.2852 28.2031 46.0664C28.2031 44.7539 28.3086 43.4648 28.5195 42.1992C28.7539 40.9336 29.1055 39.6562 29.5742 38.3672C29.1758 37.1719 28.8828 35.9766 28.6953 34.7812C28.5078 33.5859 28.4141 32.3555 28.4141 31.0898C28.4141 29.8945 28.4961 28.6758 28.6602 27.4336C28.8477 26.168 29.1289 24.8906 29.5039 23.6016C28.918 21.6797 28.625 19.7109 28.625 17.6953C28.625 15.1406 29.0586 12.5977 29.9258 10.0664ZM31.9297 9.67969L31.7188 10.1367C31.2969 11.4258 30.9688 12.7031 30.7344 13.9688C30.5234 15.2109 30.418 16.4297 30.418 17.625V17.6953C31.332 17.6953 32.2461 17.7539 33.1602 17.8711C34.0977 17.9883 35.0586 18.1172 36.043 18.2578C37.2148 17.8594 38.2109 17.5664 39.0312 17.3789C39.875 17.1914 40.7305 17.0977 41.5977 17.0977C42.3242 17.0977 43.0977 17.168 43.918 17.3086C44.7383 17.4492 45.6875 17.6484 46.7656 17.9062C46.8828 17.7656 47.0234 17.5664 47.1875 17.3086C47.375 17.0508 47.5391 16.7344 47.6797 16.3594C47.8438 15.9844 47.9844 15.5625 48.1016 15.0938C48.2188 14.6016 48.2773 14.0508 48.2773 13.4414C48.2773 12.7852 48.207 12.1875 48.0664 11.6484C47.9258 11.1094 47.75 10.6406 47.5391 10.2422C47.3516 9.84375 47.1523 9.51562 46.9414 9.25781C46.7305 8.97656 46.5547 8.76562 46.4141 8.625C45.1719 9.04688 44.1289 9.36328 43.2852 9.57422C42.4648 9.76172 41.6562 9.85547 40.8594 9.85547C40.25 9.85547 39.5938 9.79687 38.8906 9.67969C38.1875 9.5625 37.3789 9.39844 36.4648 9.1875C36.7227 9.84375 36.9102 10.4883 37.0273 11.1211C37.1445 11.7539 37.2031 12.3398 37.2031 12.8789C37.2031 13.9336 37.1328 14.7305 36.9922 15.2695C36.875 15.7852 36.7344 16.1484 36.5703 16.3594C36.4062 16.5703 36.2539 16.6758 36.1133 16.6758C35.9961 16.6758 35.9258 16.6758 35.9023 16.6758C35.7148 16.6758 35.5508 16.6055 35.4102 16.4648C35.2695 16.3242 35.1992 16.1602 35.1992 15.9727C35.1992 15.9492 35.2109 15.9023 35.2344 15.832C35.2812 15.7617 35.3281 15.6445 35.375 15.4805C35.4219 15.3164 35.457 15.082 35.4805 14.7773C35.5273 14.4727 35.5508 14.0508 35.5508 13.5117C35.5508 12.9023 35.4805 12.2109 35.3398 11.4375C35.1992 10.6641 34.9062 9.86719 34.4609 9.04688C34.0156 9.04688 33.5586 9.10547 33.0898 9.22266C32.6211 9.31641 32.1641 9.42188 31.7188 9.53906L31.9297 9.67969ZM33.1602 35.7656C34.1914 35.7656 35.2109 35.8594 36.2188 36.0469C37.25 36.2344 38.4219 36.5273 39.7344 36.9258C39.8984 36.7852 40.0859 36.5742 40.2969 36.293C40.5078 36.0117 40.707 35.6719 40.8945 35.2734C41.082 34.875 41.2461 34.418 41.3867 33.9023C41.5273 33.3867 41.5977 32.8008 41.5977 32.1445C41.5977 31.5117 41.5391 30.9492 41.4219 30.457C41.3047 29.9648 41.1641 29.543 41 29.1914C40.8359 28.8164 40.6602 28.5117 40.4727 28.2773C40.2852 28.0195 40.1328 27.8203 40.0156 27.6797C38.9609 27.9844 38.0117 28.1953 37.168 28.3125C36.3477 28.4297 35.5391 28.4883 34.7422 28.4883C34.0156 28.4883 33.3008 28.4531 32.5977 28.3828C31.8945 28.2891 31.1445 28.1367 30.3477 27.9258C30.2773 28.4648 30.2188 29.0156 30.1719 29.5781C30.1484 30.1172 30.1367 30.6445 30.1367 31.1602C30.1367 31.9805 30.1719 32.7891 30.2422 33.5859C30.3359 34.3828 30.4766 35.1797 30.6641 35.9766C31.5078 35.8359 32.3398 35.7656 33.1602 35.7656Z" fill="#1DB954"/>
</g>
<defs>
<clipPath id="clip0">
<rect width="64" height="64" fill="white"/>
</clipPath>
</defs>
</svg>
